# Blender 5.2.0 LTS
# www.blender.org
mtllib RotatingFrame.mtl
o RotatingFrame
v -0.050000 0.350000 -0.350000
v -0.050000 0.450000 -0.350000
v -0.050000 0.350000 0.350000
v -0.050000 0.450000 0.350000
v 0.050000 0.350000 -0.350000
v 0.050000 0.450000 -0.350000
v 0.050000 0.350000 0.350000
v 0.050000 0.450000 0.350000
v -0.025000 0.350000 0.025000
v -0.025000 0.350000 -0.025000
v -0.050000 0.450000 -0.250000
v -0.050000 0.450000 0.250000
v 0.025000 0.350000 -0.025000
v 0.025000 0.350000 0.025000
v 0.050000 0.450000 0.250000
v 0.050000 0.450000 -0.250000
v 0.050000 -0.350000 0.350000
v -0.050000 -0.350000 0.350000
v 0.025000 -0.350000 0.025000
v -0.025000 -0.350000 0.025000
v 0.050000 -0.450000 0.350000
v -0.050000 -0.450000 0.350000
v 0.050000 -0.450000 0.250000
v -0.050000 -0.450000 0.250000
v 0.025000 -0.350000 -0.025000
v -0.025000 -0.350000 -0.025000
v 0.050000 -0.450000 -0.250000
v -0.050000 -0.450000 -0.250000
v -0.050000 -0.350000 -0.350000
v 0.050000 -0.350000 -0.350000
v -0.050000 -0.450000 -0.350000
v 0.050000 -0.450000 -0.350000
v 0.050000 0.350000 0.350000
v -0.050000 0.350000 0.350000
v 0.050000 -0.350000 0.350000
v -0.050000 -0.350000 0.350000
v -0.050000 0.050000 0.350003
v -0.050000 -0.050000 0.350003
v 0.050000 0.050000 0.350003
v 0.050000 -0.050000 0.350003
v -0.050000 0.050000 0.450003
v -0.050000 -0.050000 0.450003
v 0.050000 0.050000 0.450003
v 0.050000 -0.050000 0.450003
v 0.050000 0.050000 -0.350003
v 0.050000 -0.050000 -0.350003
v -0.050000 0.050000 -0.350003
v -0.050000 -0.050000 -0.350003
v 0.050000 0.050000 -0.450003
v 0.050000 -0.050000 -0.450003
v -0.050000 0.050000 -0.450003
v -0.050000 -0.050000 -0.450003
v -0.050000 -0.050000 0.250000
v -0.050000 0.050000 0.250000
v 0.050000 -0.050000 0.250000
v 0.050000 0.050000 0.250000
v 0.050000 -0.050000 -0.250000
v 0.050000 0.050000 -0.250000
v -0.050000 -0.050000 -0.250000
v -0.050000 0.050000 -0.250000
v -0.050000 0.350000 0.250000
v -0.050000 0.350000 -0.250000
v 0.050000 0.350000 -0.250000
v 0.050000 0.350000 0.250000
v -0.025000 0.300000 0.025000
v -0.025000 0.300000 -0.025000
v 0.025000 0.300000 -0.025000
v 0.025000 0.300000 0.025000
v 0.050000 -0.350000 0.250000
v -0.050000 -0.350000 0.250000
v 0.050000 -0.350000 -0.250000
v -0.050000 -0.350000 -0.250000
v 0.025000 -0.300000 0.025000
v -0.025000 -0.300000 0.025000
v 0.025000 -0.300000 -0.025000
v -0.025000 -0.300000 -0.025000
vn 1.0000 -0.0000 -0.0000
vn -0.0000 -0.0000 -1.0000
vn -1.0000 -0.0000 -0.0000
vn -0.0000 -0.0000 1.0000
vn -0.0000 -1.0000 -0.0000
vn -0.0000 1.0000 -0.0000
vt 0.375000 0.166667
vt 0.625000 0.166667
vt 0.625000 0.250000
vt 0.375000 0.250000
vt 0.625000 0.500000
vt 0.375000 0.500000
vt 0.375000 0.666667
vt 0.625000 0.666667
vt 0.625000 0.750000
vt 0.375000 0.750000
vt 0.625000 1.000000
vt 0.375000 0.916667
vt 0.875000 0.666667
vt 0.875000 0.750000
vt 0.375000 0.833333
vt 0.375000 0.666667
vt 0.330806 0.663720
vt 0.169194 0.663720
vt 0.875000 0.500000
vt 0.875000 0.583333
vt 0.625000 0.583333
vt 0.375000 0.583333
vt 0.375000 0.000000
vt 0.625000 0.000000
vt 0.625000 0.083333
vt 0.375000 0.083333
vt 0.375000 0.250000
vt 0.125000 0.583333
vt 0.125000 0.500000
vt 0.333541 0.583333
vt 0.375000 1.000000
vt 0.125000 0.666667
vt 0.125000 0.750000
vt 0.375000 0.500000
vt 0.375000 0.333333
vt 0.375000 0.416667
vt 0.000000 0.000000
vt 0.169194 0.586280
vt 0.330806 0.586280
vt 0.166459 0.583333
s 0
f 61/1/1 12/2/1 4/3/1 34/4/1
f 34/4/2 4/3/2 8/5/2 33/6/2
f 63/7/3 16/8/3 6/9/3 5/10/3
f 5/10/4 6/9/4 2/11/4 1/12/4
f 16/8/5 11/13/5 2/14/5 6/9/5
f 45/15/3 46/10/3 57/16/3 58/16/3
f 13/17/4 10/18/4 66/18/4 67/17/4
f 8/5/5 4/19/5 12/20/5 15/21/5
f 15/21/5 12/20/5 11/13/5 16/8/5
f 33/6/3 8/5/3 15/21/3 64/22/3
f 64/22/3 15/21/3 16/8/3 63/7/3
f 1/23/1 2/24/1 11/25/1 62/26/1
f 62/26/1 11/25/1 12/2/1 61/1/1
f 53/1/1 38/27/1 36/4/1 70/1/1
f 70/1/1 36/4/1 22/4/1 24/1/1
f 55/22/4 53/28/4 70/28/4 69/22/4
f 22/29/6 21/6/6 23/22/6 24/28/6
f 21/6/2 22/4/2 36/4/2 35/6/2
f 23/22/3 69/22/3 71/22/3 27/22/3
f 35/6/3 69/22/3 23/22/3 21/6/3
f 70/1/1 24/1/1 28/1/1 72/1/1
f 24/28/6 23/22/6 27/22/6 28/28/6
f 25/30/3 19/30/3 73/30/3 75/30/3
f 30/15/4 29/31/4 31/31/4 32/10/4
f 59/32/2 57/16/2 71/7/2 72/32/2
f 5/10/3 45/15/3 58/16/3 63/7/3
f 28/32/6 27/7/6 32/10/6 31/33/6
f 29/23/1 72/26/1 28/26/1 31/23/1
f 71/7/3 30/10/3 32/10/3 27/7/3
f 64/22/3 56/22/3 39/6/3 33/6/3
f 17/6/6 40/34/6 35/6/6
f 37/35/5 39/36/5 43/36/5 41/35/5
f 34/4/2 33/6/2 39/36/2 37/35/2
f 36/4/2 38/35/2 40/36/2 35/6/2
f 41/35/2 43/36/2 44/36/2 42/35/2
f 38/4/1 37/4/1 41/4/1 42/4/1
f 40/36/6 38/35/6 42/35/6 44/36/6
f 39/6/3 40/6/3 44/6/3 43/6/3
f 45/15/5 47/12/5 51/12/5 49/15/5
f 48/12/4 29/31/4 30/10/4 46/10/4
f 47/12/4 45/15/4 5/10/4 1/12/4
f 49/15/4 51/12/4 52/12/4 50/15/4
f 47/23/1 48/23/1 52/23/1 51/23/1
f 46/10/3 45/10/3 49/10/3 50/10/3
f 48/12/6 46/10/6 50/10/6 52/12/6
f 55/37/3 69/37/3 35/37/3 40/37/3
f 39/6/3 56/22/3 55/22/3 40/6/3
f 64/22/4 61/28/4 54/28/4 56/22/4
f 56/22/4 54/28/4 53/28/4 55/22/4
f 61/1/1 34/4/1 37/27/1 54/1/1
f 54/1/1 37/27/1 38/27/1 53/1/1
f 38/4/6 18/4/6 36/4/6
f 62/32/2 63/7/2 58/16/2 60/32/2
f 60/32/2 58/16/2 57/16/2 59/32/2
f 59/32/1 48/23/1 47/23/1 60/32/1
f 71/7/3 57/16/3 46/10/3 30/10/3
f 72/32/1 29/31/1 48/23/1 59/32/1
f 62/32/1 60/32/1 47/23/1 1/12/1
f 9/38/6 10/18/6 62/32/6 61/28/6
f 13/17/6 14/39/6 64/22/6 63/7/6
f 14/39/6 9/38/6 61/28/6 64/22/6
f 10/18/6 13/17/6 63/7/6 62/32/6
f 65/38/6 68/39/6 67/17/6 66/18/6
f 14/39/3 13/17/3 67/17/3 68/39/3
f 9/38/2 14/39/2 68/39/2 65/38/2
f 10/18/1 9/38/1 65/38/1 66/18/1
f 20/40/5 19/30/5 69/22/5 70/28/5
f 25/30/5 26/40/5 72/28/5 71/22/5
f 19/30/5 25/30/5 71/22/5 69/22/5
f 26/40/5 20/40/5 70/28/5 72/28/5
f 73/30/5 74/40/5 76/40/5 75/30/5
f 19/30/2 20/40/2 74/40/2 73/30/2
f 20/40/1 26/40/1 76/40/1 74/40/1
f 26/40/4 25/30/4 75/30/4 76/40/4
l 33 7
l 3 34
