# Blender 5.2.0 LTS
# www.blender.org
mtllib RPM_base.mtl
o Cube
v -0.700000 -0.720000 0.700000
v -0.700000 -0.680000 0.700000
v -0.700000 -0.720000 -0.700000
v -0.700000 -0.680000 -0.700000
v 0.700000 -0.720000 0.700000
v 0.700000 -0.680000 0.700000
v 0.700000 -0.720000 -0.700000
v 0.700000 -0.680000 -0.700000
v 0.700000 -0.680000 0.000000
v -0.700000 -0.680000 0.000000
v -0.108980 -0.680000 -0.700000
v 0.108980 -0.680000 -0.700000
v 0.108980 -0.680000 0.700000
v -0.108980 -0.680000 0.700000
v 0.108980 -0.680000 -0.607556
v -0.108980 -0.680000 -0.607556
v -0.108980 -0.680000 0.607556
v 0.108980 -0.680000 0.607556
v -0.108980 0.120000 -0.700000
v 0.108980 0.120000 -0.700000
v 0.108980 0.120000 0.700000
v -0.108980 0.120000 0.700000
v 0.050000 0.050000 -0.607556
v 0.050000 0.050000 0.607556
v -0.050000 0.050000 -0.607556
v -0.050000 0.050000 0.607556
v -0.108980 -0.100000 0.700000
v -0.050000 -0.050000 0.607556
v 0.050000 -0.050000 0.607556
v 0.108980 -0.100000 0.700000
v -0.108980 -0.100000 -0.700000
v 0.108980 -0.100000 -0.700000
v -0.050000 -0.050000 -0.607556
v 0.050000 -0.050000 -0.607556
v 0.108980 0.120000 -0.607556
v -0.108980 0.120000 -0.607556
v 0.108980 -0.100000 -0.607556
v -0.108980 -0.100000 -0.607556
v -0.108980 0.120000 0.607556
v 0.108980 0.120000 0.607556
v 0.108980 -0.100000 0.607556
v -0.108980 -0.100000 0.607556
v -0.050000 0.050000 -0.557555
v 0.050000 0.050000 -0.557555
v -0.050000 -0.050000 -0.557555
v 0.050000 -0.050000 -0.557555
v -0.050000 0.050000 0.557555
v 0.050000 0.050000 0.557555
v 0.050000 -0.050000 0.557555
v -0.050000 -0.050000 0.557555
vn -1.0000 -0.0000 -0.0000
vn -0.0000 -0.0000 -1.0000
vn 1.0000 -0.0000 -0.0000
vn -0.0000 -0.0000 1.0000
vn -0.0000 -1.0000 -0.0000
vn -0.0000 1.0000 -0.0000
vt 0.375000 0.000000
vt 0.625000 0.000000
vt 0.625000 0.125000
vt 0.625000 0.250000
vt 0.375000 0.250000
vt 0.625000 0.333333
vt 0.625000 0.416667
vt 0.625000 0.500000
vt 0.375000 0.500000
vt 0.625000 0.625000
vt 0.625000 0.750000
vt 0.375000 0.750000
vt 0.625000 0.833333
vt 0.625000 0.916667
vt 0.625000 1.000000
vt 0.375000 1.000000
vt 0.125000 0.500000
vt 0.125000 0.750000
vt 0.625000 0.520833
vt 0.625000 0.229167
vt 0.625000 0.729167
vt 0.625000 0.494056
vt 0.625000 0.695712
vt 0.625000 0.554288
vt 0.625000 0.255944
vt 0.625000 0.255944
vt 0.625000 0.695712
vt 0.625000 0.554288
s 0
f 1/1/1 2/2/1 10/3/1 4/4/1 3/5/1
f 3/5/2 4/4/2 11/6/2 12/7/2 8/8/2 7/9/2
f 7/9/3 8/8/3 9/10/3 6/11/3 5/12/3
f 5/12/4 6/11/4 13/13/4 14/14/4 2/15/4 1/16/4
f 3/17/5 7/9/5 5/12/5 1/18/5
f 8/8/6 12/7/6 15/19/6 9/10/6
f 4/4/6 10/3/6 16/20/6 11/6/6
f 2/2/6 14/14/6 17/19/6 10/3/6
f 6/11/6 9/10/6 18/21/6 13/13/6
f 17/19/6 18/21/6 9/10/6 10/3/6
f 15/19/6 16/20/6 10/3/6 9/10/6
f 23/22/1 34/22/1 46/22/1 44/22/1
f 32/7/2 31/6/2 19/6/2 20/7/2
f 19/6/6 36/20/6 35/19/6 20/7/6
f 21/13/6 40/21/6 39/19/6 22/14/6
f 42/19/1 27/14/1 22/14/1 39/19/1
f 37/19/3 32/7/3 20/7/3 35/19/3
f 30/13/3 41/21/3 40/21/3 21/13/3
f 31/6/1 38/20/1 36/20/1 19/6/1
f 29/23/5 28/24/5 50/24/5 49/23/5
f 27/14/4 30/13/4 21/13/4 22/14/4
f 14/14/4 13/13/4 30/13/4 27/14/4
f 18/21/2 17/19/2 42/19/2 41/21/2
f 13/13/3 18/21/3 41/21/3 30/13/3
f 17/19/1 14/14/1 27/14/1 42/19/1
f 11/6/1 16/20/1 38/20/1 31/6/1
f 15/19/3 12/7/3 32/7/3 37/19/3
f 12/7/2 11/6/2 31/6/2 32/7/2
f 16/20/4 15/19/4 37/19/4 38/20/4
f 36/20/4 38/20/4 33/25/4 25/26/4
f 35/19/4 36/20/4 25/26/4 23/22/4
f 37/19/4 34/22/4 33/25/4 38/20/4
f 37/19/4 35/19/4 23/22/4 34/22/4
f 24/27/2 26/28/2 39/19/2 40/21/2
f 29/23/2 24/27/2 40/21/2 41/21/2
f 26/28/2 28/24/2 42/19/2 39/19/2
f 28/24/2 29/23/2 41/21/2 42/19/2
f 46/22/2 45/25/2 43/26/2 44/22/2
f 25/26/5 23/22/5 44/22/5 43/26/5
f 34/22/6 33/25/6 45/25/6 46/22/6
f 33/25/3 25/26/3 43/26/3 45/25/3
f 49/23/2 50/24/2 47/28/2 48/27/2
f 24/27/3 29/23/3 49/23/3 48/27/3
f 28/24/1 26/28/1 47/28/1 50/24/1
f 26/28/6 24/27/6 48/27/6 47/28/6
